<svg id="Group_38" data-name="Group 38" xmlns="http://www.w3.org/2000/svg" viewBox="0 0 118.452 46.488">
  <defs>
    <style>
      .cls-1 {
        fill: #fff;
      }

      .cls-2 {
        fill: #9aa1ac;
      }
    </style>
  </defs>
  <g id="Group_36" data-name="Group 36">
    <path id="Path_201" data-name="Path 201" class="cls-1" d="M83.653,47.235H81.546a1.813,1.813,0,0,1-.252,1.6,1.435,1.435,0,0,1-1.227.566.946.946,0,0,1-.944-.786,19.452,19.452,0,0,1-.094-2.988v-9.31h4.687V34.087H79.029V28.3H75.978a9.652,9.652,0,0,1-.755,2.39,8.728,8.728,0,0,1-1.2,1.982,5.591,5.591,0,0,1-1.573,1.321,3.5,3.5,0,0,1-1.856.5v1.824h2.925V48.241a5.551,5.551,0,0,0,.283,1.824,3.8,3.8,0,0,0,2.328,2.328,7.327,7.327,0,0,0,5.378-.409,4.031,4.031,0,0,0,2.2-3.208A14.267,14.267,0,0,0,83.653,47.235Z" transform="translate(-48.394 -19.399)"/>
    <path id="Path_202" data-name="Path 202" class="cls-1" d="M26.577,59.362a5.472,5.472,0,0,0,1.384,2.328,3.162,3.162,0,0,0,2.265.849,3.591,3.591,0,0,0,1.038-.157,2.842,2.842,0,0,0,.818-.409,1.93,1.93,0,0,0,.535-.6,1.461,1.461,0,0,0,.189-.723,2.75,2.75,0,0,0-.252-1.164,2.718,2.718,0,0,0-.661-.912,4.952,4.952,0,0,0-1.007-.755c-.409-.22-.818-.44-1.29-.661-.723-.315-1.415-.661-2.139-1.038a9.3,9.3,0,0,1-1.919-1.29A6.182,6.182,0,0,1,24.155,53.2a4.314,4.314,0,0,1-.535-2.139,4.71,4.71,0,0,1,.472-2.107,5.159,5.159,0,0,1,1.352-1.636,5.851,5.851,0,0,1,2.076-1.038,9,9,0,0,1,2.674-.377,10.934,10.934,0,0,1,2.39.252,6.319,6.319,0,0,1,1.824.723,6.053,6.053,0,0,1,1.384,1.132,9.331,9.331,0,0,1,1.1,1.51l-3.208,1.132a3.615,3.615,0,0,0-.629-1.352,3.211,3.211,0,0,0-.755-.723,1.858,1.858,0,0,0-.755-.283,5.763,5.763,0,0,0-.661-.063,3.318,3.318,0,0,0-.975.126,3.16,3.16,0,0,0-.818.315,1.552,1.552,0,0,0-.566.535,1.224,1.224,0,0,0-.22.723,1.766,1.766,0,0,0,.283.975,3.192,3.192,0,0,0,.755.849,8.829,8.829,0,0,0,1.132.755,14.806,14.806,0,0,0,1.415.692,18.659,18.659,0,0,1,2.265,1.069,9.646,9.646,0,0,1,1.95,1.321,5.952,5.952,0,0,1,1.352,1.636,3.987,3.987,0,0,1,.5,2.013,6.528,6.528,0,0,1-.377,2.233,4.524,4.524,0,0,1-1.29,1.824A6.891,6.891,0,0,1,34,64.52a11.876,11.876,0,0,1-3.4.44,9.641,9.641,0,0,1-2.894-.377A6.7,6.7,0,0,1,25.7,63.577a6.246,6.246,0,0,1-1.352-1.384q-.519-.755-.944-1.51Z" transform="translate(-16.04 -31.463)"/>
    <path id="Path_203" data-name="Path 203" class="cls-1" d="M131.827,64.183h-5.567V62.736c-.315.252-.6.5-.912.723a4.943,4.943,0,0,1-.975.566,5.651,5.651,0,0,1-1.227.377,8.094,8.094,0,0,1-1.6.126,7.136,7.136,0,0,1-2.265-.346,5.22,5.22,0,0,1-1.73-1.007,4.268,4.268,0,0,1-1.069-1.51,4.553,4.553,0,0,1-.377-1.856,4.152,4.152,0,0,1,.409-1.887,4.664,4.664,0,0,1,1.1-1.51,10.773,10.773,0,0,1,1.6-1.227,14.481,14.481,0,0,1,1.982-.975c.692-.283,1.447-.566,2.2-.818s1.51-.5,2.233-.723l.6-.126V50.69a5.118,5.118,0,0,0-.189-1.478,3.021,3.021,0,0,0-.5-1.007,2.17,2.17,0,0,0-.755-.566,2.51,2.51,0,0,0-1.006-.157,3.553,3.553,0,0,0-1.1.157,2.4,2.4,0,0,0-.723.472,1.5,1.5,0,0,0-.377.692,2.345,2.345,0,0,0-.126.818,3.534,3.534,0,0,1-.126,1.007,2.6,2.6,0,0,1-.377.849,2.058,2.058,0,0,1-.755.6,2.822,2.822,0,0,1-1.258.22,3.063,3.063,0,0,1-1.069-.189,2.391,2.391,0,0,1-.818-.5,2.538,2.538,0,0,1-.535-.755,2.256,2.256,0,0,1-.189-.912,2.73,2.73,0,0,1,.661-1.761,6.059,6.059,0,0,1,1.73-1.415,9.491,9.491,0,0,1,2.516-.912,13.456,13.456,0,0,1,3.02-.346,14.97,14.97,0,0,1,3.365.346,6.926,6.926,0,0,1,2.328,1.007,4.033,4.033,0,0,1,1.352,1.573,4.758,4.758,0,0,1,.44,2.044V64.183Zm-5.536-9.436c-.535.22-1.069.5-1.6.786a13.375,13.375,0,0,0-1.478.975,5.159,5.159,0,0,0-1.069,1.132,2.142,2.142,0,0,0-.409,1.258,3.535,3.535,0,0,0,.126,1.007,2.809,2.809,0,0,0,.377.818,3.071,3.071,0,0,0,.535.566,1.134,1.134,0,0,0,.629.189,2.685,2.685,0,0,0,1.384-.409c.472-.283.975-.629,1.541-1.038V54.747Z" transform="translate(-79.583 -31.189)"/>
    <path id="Path_204" data-name="Path 204" class="cls-1" d="M184.46,51.9a4.651,4.651,0,0,0-.157-1.227,3.066,3.066,0,0,0-.409-.912,1.7,1.7,0,0,0-.6-.566,1.347,1.347,0,0,0-.692-.189,2.862,2.862,0,0,0-.818.157,4.981,4.981,0,0,0-.975.409,9.136,9.136,0,0,0-1.038.629,12.676,12.676,0,0,0-1.006.818V64.389H173.2V46.177h5.567v1.415A8.555,8.555,0,0,1,181.5,46.24a10.471,10.471,0,0,1,2.925-.44,5.536,5.536,0,0,1,2.139.44,5.659,5.659,0,0,1,2.957,2.957,4.965,4.965,0,0,1,.44,2.17V64.42h-5.5Z" transform="translate(-118.723 -31.394)"/>
    <path id="Path_205" data-name="Path 205" class="cls-1" d="M0,0,5.473,1.541V33.026H0Z"/>
    <path id="Path_206" data-name="Path 206" class="cls-1" d="M234.031,20.241,239.6,18.7V28.8a9.739,9.739,0,0,1,1.132-.661c.409-.189.786-.346,1.2-.5a8.955,8.955,0,0,1,1.227-.346,5.417,5.417,0,0,1,1.227-.126,7.415,7.415,0,0,1,3.145.661,7.816,7.816,0,0,1,4.12,4.372,8.87,8.87,0,0,1,.6,3.145,10.976,10.976,0,0,1-.818,4.152,10.8,10.8,0,0,1-5.63,5.756,10.065,10.065,0,0,1-4.12.849,13.954,13.954,0,0,1-4.152-.6A9.722,9.722,0,0,1,234,43.642v-23.4ZM239.6,42.51a4.381,4.381,0,0,0,.6.472,4.321,4.321,0,0,0,.629.409,2.885,2.885,0,0,0,.723.283,3.445,3.445,0,0,0,.849.126,2.76,2.76,0,0,0,1.7-.566,4.5,4.5,0,0,0,1.29-1.541,9.189,9.189,0,0,0,.849-2.328,12.049,12.049,0,0,0,.283-2.894,6.967,6.967,0,0,0-.315-2.17,5.878,5.878,0,0,0-.818-1.793,4.55,4.55,0,0,0-1.227-1.227,2.639,2.639,0,0,0-1.51-.44,2.286,2.286,0,0,0-.786.126,4.546,4.546,0,0,0-.818.346,4.168,4.168,0,0,0-.786.5,3.286,3.286,0,0,0-.66.661V42.51Z" transform="translate(-160.4 -12.818)"/>
    <path id="Path_207" data-name="Path 207" class="cls-1" d="M304.1,47V59.833a2.148,2.148,0,0,0,.22,1.007,2.928,2.928,0,0,0,.566.818,2.983,2.983,0,0,0,.849.535,2.771,2.771,0,0,0,1.038.189,2.149,2.149,0,0,0,.692-.157,5.2,5.2,0,0,0,.786-.472,5.485,5.485,0,0,0,.786-.723,6.938,6.938,0,0,0,.692-.912V47h5.536V65.243h-5.536v-1.7a8.8,8.8,0,0,1-2.327,1.478,5.757,5.757,0,0,1-2.39.566,7.16,7.16,0,0,1-2.516-.44,6.442,6.442,0,0,1-2.044-1.227A5.526,5.526,0,0,1,299.1,62.1a5.393,5.393,0,0,1-.5-2.233V47Z" transform="translate(-204.681 -32.217)"/>
    <path id="Path_208" data-name="Path 208" class="cls-1" d="M364.673,32.994H359.2V1.541L364.673,0Z" transform="translate(-246.221)"/>
    <path id="Path_209" data-name="Path 209" class="cls-1" d="M102.5,89.5" transform="translate(-70.261 -61.349)"/>
  </g>
  <g id="Group_37" data-name="Group 37" transform="translate(39.096 40.354)">
    <path id="Path_212" data-name="Path 212" class="cls-2" d="M126.124,129.527H124.3V128.3h4.97v1.227h-1.824v4.781h-1.321Z" transform="translate(-124.3 -128.3)"/>
    <path id="Path_213" data-name="Path 213" class="cls-2" d="M150.1,131.828V128.4h1.321v3.4c0,.975.5,1.478,1.29,1.478s1.29-.5,1.29-1.447V128.4h1.321v3.4a2.612,2.612,0,1,1-5.221.031Z" transform="translate(-141.985 -128.369)"/>
    <path id="Path_214" data-name="Path 214" class="cls-2" d="M178,128.4h2.736a2.533,2.533,0,0,1,1.761.6,1.877,1.877,0,0,1,.5,1.384v.031a1.865,1.865,0,0,1-1.29,1.856l1.478,2.139h-1.541l-1.29-1.919h-1.038v1.919H178Zm2.673,2.894c.629,0,1.007-.346,1.007-.849v-.031c0-.566-.409-.849-1.038-.849h-1.321v1.73Z" transform="translate(-161.11 -128.369)"/>
    <path id="Path_215" data-name="Path 215" class="cls-2" d="M204.8,128.4h1.321v2.611l2.422-2.611h1.6l-2.453,2.548,2.548,3.46h-1.573l-1.856-2.548-.692.723v1.824H204.8Z" transform="translate(-179.48 -128.369)"/>
    <path id="Path_216" data-name="Path 216" class="cls-2" d="M231.8,128.4h4.529v1.164h-3.208v1.227h2.831v1.164h-2.831v1.258h3.271v1.164h-4.561V128.4Z" transform="translate(-197.988 -128.369)"/>
    <path id="Path_217" data-name="Path 217" class="cls-2" d="M257.4,131.949l-2.3-3.649h1.541l1.447,2.422,1.447-2.422h1.51l-2.3,3.617v2.39h-1.321v-2.359Z" transform="translate(-213.959 -128.3)"/>
  </g>
</svg>
